#!OML:ASF H:\Terrain\Patient Classification 1\PLAYGROUND\JustinFriday\JustinFriday.ASF
:FULLY-SPECIFIED
:DEGREES
2366
root -14.2895 16.6584 7.85878 350.174 15.5647 -5.64459
lowerback 8.5603 1.53093 2.88354
upperback 2.80347 2.39102 3.6689
thorax -1.93219 1.19748 1.93149
lowerneck -1.68586 8.23009 -3.81469
upperneck 4.58173 10.9884 3.12332
head 1.31765 5.48663 1.75484
rclavicle -4.40432e-014 1.51076e-014
rhumerus -43.7577 -25.3797 -55.818
rradius 44.0247
rwrist -15.7234
rhand -14.0685 -27.3207
rfingers 7.12502
rthumb 12.063 303.047
lclavicle -4.40432e-014 1.51076e-014
lhumerus -47.0392 31.6442 65.3687
lradius 42.7678
lwrist 0.242651
lhand -21.093 -4.59437
lfingers 7.12502
lthumb 5.28452 25.3197
rfemur -1.21045 -1.78942 20.7021
rtibia 44.1677
rfoot -23.7968 -21.4585
rtoes -6.8395
lfemur -10.2567 1.28779 -14.2204
ltibia 49.7819
lfoot -26.9 -10.5134
ltoes 11.0567
2367
root -14.26 16.7082 7.8986 350.174 15.3689 -7.3435
lowerback 8.56391 1.70786 4.44116
upperback 2.48507 2.78761 4.07192
thorax -2.21411 1.38942 1.43441
lowerneck -0.322246 8.18575 -2.85113
upperneck 3.27577 10.9022 2.16843
head 0.781431 5.44234 1.18917
rclavicle -5.93869e-015 -4.09496e-014
rhumerus -44.4741 -25.9132 -55.8238
rradius 41.0295
rwrist -14.3525
rhand -13.6234 -26.229
rfingers 7.12502
rthumb 12.4922 304.164
lclavicle -5.93869e-015 -4.09496e-014
lhumerus -47.7788 33.2524 63.7355
lradius 39.0585
lwrist -0.76752
lhand -20.8464 -4.91425
lfingers 7.12502
lthumb 5.52261 24.9938
rfemur -1.08235 -1.21065 22.7817
rtibia 43.1296
rfoot -23.3073 -22.0821
rtoes -6.54184
lfemur -10.4113 1.70081 -12.2505
ltibia 49.3149
lfoot -26.5494 -11.4424
ltoes 11.9792
2368
root -14.2183 16.7645 7.94845 350.58 15.6286 -6.76322
lowerback 8.59292 1.84099 3.72843
upperback 2.33935 2.91084 3.99203
thorax -2.41272 1.4489 1.73211
lowerneck -0.123368 8.2425 -2.74486
upperneck 2.81136 10.9793 1.896
head 0.623307 5.48032 1.0643
rclavicle -2.10525e-014 1.23246e-014
rhumerus -45.1173 -26.9495 -55.0382
rradius 39.1497
rwrist -8.19888
rhand -6.79556 -30.6443
rfingers 7.12502
rthumb 19.0674 300.27
lclavicle -2.10525e-014 1.23246e-014
lhumerus -49.2475 35.2583 61.6187
lradius 35.8403
lwrist -2.46076
lhand -20.5335 -5.00901
lfingers 7.12502
lthumb 5.82475 24.8909
rfemur -0.731114 -1.18153 22.0631
rtibia 42.2659
rfoot -23.1869 -21.961
rtoes -5.84803
lfemur -10.1254 1.64062 -13.0272
ltibia 48.6583
lfoot -26.345 -11.5885
ltoes 12.518
2369
root -14.2132 16.8043 7.96231 350.271 15.1218 -9.39174
lowerback 8.98984 1.92506 5.81578
upperback 2.08955 3.29077 4.84643
thorax -2.82711 1.62188 1.4009
lowerneck -0.4893 8.25657 -2.87217
upperneck 2.98862 11.0077 1.95823
head 0.727978 5.49422 1.12747
rclavicle 5.12367e-014 -1.11319e-014
rhumerus -45.094 -26.8478 -55.7216
rradius 35.9105
rwrist -10.4904
rhand -13.1768 -23.5672
rfingers 7.12502
rthumb 12.9228 306.853
lclavicle 5.12367e-014 -1.11319e-014
lhumerus -50.6949 36.4843 60.0069
lradius 33.3961
lwrist -3.35438
lhand -20.4586 -3.55036
lfingers 7.12502
lthumb 5.89711 26.3476
rfemur -0.832745 -0.115805 25.4087
rtibia 41.33
rfoot -22.8287 -22.6241
rtoes -3.8696
lfemur -10.4347 2.12071 -9.90597
ltibia 48.2268
lfoot -26.0126 -12.0227
ltoes 11.8822
2370
root -14.1885 16.8435 7.97854 350.454 14.774 -10.1964
lowerback 9.2557 2.12276 6.39553
upperback 1.85058 3.66548 5.13323
thorax -3.20172 1.7936 1.32244
lowerneck -1.17561 8.27179 -3.07961
upperneck 3.93959 11.0411 2.25835
head 1.11222 5.50988 1.3205
rclavicle -1.18836e-014 -6.36111e-015
rhumerus -45.7223 -28.0843 -54.7361
rradius 33.6453
rwrist -5.29481
rhand -9.44996 -24.7635
rfingers 7.12502
rthumb 16.5133 305.919
lclavicle -1.18836e-014 -6.36111e-015
lhumerus -51.3775 34.822 60.9788
lradius 32.674
lwrist -0.68607
lhand -21.7698 0.112781
lfingers 7.12502
lthumb 4.63104 30.0422
rfemur -1.00774 0.697651 26.5041
rtibia 40.7598
rfoot -22.0699 -23.1676
rtoes -3.87915
lfemur -10.426 2.5284 -8.95422
ltibia 47.575
lfoot -25.6494 -12.3786
ltoes 12.2558
